<?xml version="1.0" standalone="no"?><!DOCTYPE svg PUBLIC "-//W3C//DTD SVG 1.1//EN" "http://www.w3.org/Graphics/SVG/1.1/DTD/svg11.dtd"><svg t="1660060325420" class="icon" viewBox="0 0 1024 1024" version="1.1" xmlns="http://www.w3.org/2000/svg" p-id="3723" xmlns:xlink="http://www.w3.org/1999/xlink" width="32" height="32"><defs><style type="text/css">@font-face { font-family: "Inter var"; font-weight: 100 900; font-display: swap; font-style: normal; src: url("chrome-extension://infppggnoaenmfagbfknfkancpbljcca/Inter-roman-latin.var.woff2") format("woff2"); }
</style></defs><path d="M941.173821 349.253428v113.036939c-70.033756 0-129.623882 44.231846-152.661302 106.176909-6.552866-17.610828-10.136465-36.655095-10.136465-56.51847 0.102389-89.897132 73.003024-162.695378 162.797767-162.695378zM235.81922 455.430336c6.552866 17.610828 10.136465 36.655095 10.136465 56.51847 0 89.897132-72.798247 162.695378-162.695378 162.695378v-112.934551c69.931368 0 129.521494-44.231846 152.558913-106.279297z" fill="#F95428" p-id="3724"></path><path d="M235.81922 455.430336c-22.935031 62.047451-82.627546 106.279297-152.661302 106.279297v-212.456205c70.033756 0 129.623882 44.129458 152.661302 106.176908zM941.173821 462.290367v212.456205c-70.033756 0-129.726271-44.231846-152.661302-106.279296 23.03742-62.047451 82.729934-106.176908 152.661302-106.176909zM424.623674 260.380181v503.137249c-104.026749-36.143152-178.770378-135.152863-178.770378-251.568624 0-116.415761 74.743629-215.323084 178.770378-251.568625z" fill="#F7B239" p-id="3725"></path><path d="M334.521766 511.948806c0-79.55589 34.812101-150.818308 90.101908-199.657639v-51.910986c-104.026749 36.143152-178.770378 135.152863-178.770378 251.568625s74.64124 215.323084 178.770378 251.568624v-51.910986c-55.187419-48.83933-90.101909-120.101749-90.101908-199.657638z" fill="#E09B2D" p-id="3726"></path><path d="M778.478442 511.948806c0 116.415761-74.743629 215.323084-178.770377 251.568624v-503.137249c104.026749 36.24554 178.770378 135.152863 178.770377 251.568625z" fill="#F7B239" p-id="3727"></path><path d="M599.708065 260.380181v503.137249c-27.440127 9.522134-56.825636 14.743949-87.542196 14.743949s-60.102069-5.221815-87.542195-14.743949v-503.137249c27.440127-9.522134 56.928024-14.743949 87.542195-14.743948 30.71656 0 60.102069 5.221815 87.542196 14.743948z" fill="#F95428" p-id="3728"></path><path d="M667.182108 678.739725c-4.095541 0-8.191083-1.535828-11.467516-4.607484-6.552866-6.348089-6.655255-16.689331-0.409554-23.242197 36.347929-37.474203 56.313693-86.825476 56.313693-138.941238 0-44.027069-14.948726-87.542195-41.979299-122.456685-5.528981-7.167197-4.300318-17.508439 2.866879-23.03742s17.508439-4.300318 23.03742 2.866879c31.535668 40.648247 48.83933 91.228182 48.83933 142.524837 0 60.7164-23.242197 118.156366-65.528661 161.773882-3.071656 3.48121-7.371974 5.119427-11.672292 5.119426z m-21.808758-320.373718c-9.112579 0-16.382165-7.371974-16.382165-16.382165s7.371974-16.382165 16.382165-16.382165c9.112579 0 16.382165 7.371974 16.382165 16.382165s-7.269586 16.382165-16.382165 16.382165z m-179.794263-40.955413c-7.576751 0-14.334395-5.221815-15.972611-12.900955-1.945382-8.805414 3.685987-17.610828 12.491401-19.55621 27.132961-5.938535 56.006527-6.96242 83.549043-2.969267 9.010191 1.331051 15.153503 9.624522 13.92484 18.634713-1.331051 9.010191-9.624522 15.153503-18.634713 13.92484-23.651751-3.378822-48.532164-2.559713-71.87675 2.559713-1.126274 0.204777-2.252548 0.307166-3.48121 0.307166zM892.129713 634.405491c-9.112579 0-16.382165-7.371974-16.382165-16.382166v-101.774201c0-9.112579 7.371974-16.382165 16.382165-16.382165s16.382165 7.371974 16.382166 16.382165v101.774201c0 9.010191-7.371974 16.382165-16.382166 16.382166zM892.129713 440.686387c-9.112579 0-16.382165-7.371974-16.382165-16.382165v-16.382165c0-9.112579 7.371974-16.382165 16.382165-16.382165s16.382165 7.371974 16.382166 16.382165v16.382165c0 9.010191-7.371974 16.382165-16.382166 16.382165z" fill="#FFFFFF" p-id="3729"></path><path d="M957.658374 349.253428c0-9.112579-7.371974-16.382165-16.382165-16.382166-68.907482 0-128.804774 39.112419-158.702225 96.245221-35.528821-115.596653-143.241557-199.760027-270.305726-199.760027s-234.776905 84.265762-270.305726 199.760027c-29.99984-57.132801-89.897132-96.245221-158.702225-96.245221-9.112579 0-16.382165 7.371974-16.382165 16.382166v325.493144c0 9.112579 7.371974 16.382165 16.382165 16.382166 68.907482 0 128.804774-39.112419 158.702225-96.245221 35.528821 115.596653 143.241557 199.760027 270.305726 199.760027s234.776905-84.265762 270.305726-199.760027c29.99984 57.132801 89.897132 96.245221 158.702225 96.245221 9.112579 0 16.382165-7.371974 16.382165-16.382166v-325.493144z m-32.866719 17.303662v80.067832c-52.218152 4.812261-99.624042 32.661942-129.623882 74.64124-0.204777-3.071656-0.307166-6.143312-0.307165-9.317356 0-75.153183 56.928024-137.200634 129.931047-145.391716z m-706.685651 88.975634c-20.477706 48.83933-66.347769 82.832323-118.56592 88.873247v-177.848881c53.549202 6.040923 98.39538 41.057802 118.56592 88.975634z m-118.56592 201.807798v-80.067833c52.218152-4.812261 99.624042-32.661942 129.623882-74.64124 0.204777 3.071656 0.307166 6.143312 0.307165 9.317357 0 75.153183-56.928024 137.200634-129.931047 145.391716z m162.797766-145.391716c0-100.750316 59.897292-187.67818 145.903659-227.200154v454.400307c-86.006367-39.521974-145.903659-126.449838-145.903659-227.200153z m178.770378 239.589166v-479.075944c22.525477-6.757643 46.382005-10.341242 71.16003-10.341242 24.675636 0 48.532164 3.583599 71.057641 10.341242v479.075944c-22.525477 6.655255-46.382005 10.341242-71.057641 10.341242-24.778025 0-48.634553-3.685987-71.16003-10.341242z m174.982002-12.389013v-454.400307c86.006367 39.521974 145.903659 126.449838 145.903659 227.200154s-59.794903 187.67818-145.903659 227.200153z m190.135505-170.681683c20.477706-48.83933 66.347769-82.832323 118.56592-88.873247v177.746493c-53.549202-5.938535-98.39538-41.057802-118.56592-88.873246z" fill="#333333" p-id="3730"></path></svg>